<?xml version="1.0" encoding="utf-8"?>
<!-- Generator: Adobe Illustrator 25.2.1, SVG Export Plug-In . SVG Version: 6.00 Build 0)  -->
<svg version="1.1" id="Layer_1" xmlns="http://www.w3.org/2000/svg" xmlns:xlink="http://www.w3.org/1999/xlink" x="0px" y="0px"
	 viewBox="0 0 208.4 121.6" style="enable-background:new 0 0 208.4 121.6;" xml:space="preserve">
<style type="text/css">
	.st0{fill-rule:evenodd;clip-rule:evenodd;fill:#00ADEE;}
	.st1{fill-rule:evenodd;clip-rule:evenodd;fill:#0089CB;}
	.st2{fill-rule:evenodd;clip-rule:evenodd;fill:#003354;}
	.st3{fill-rule:evenodd;clip-rule:evenodd;fill:#004F79;}
	.st4{fill:#FFFFFF;}
	.st5{fill-rule:evenodd;clip-rule:evenodd;fill:#FFFFFF;}
</style>
<path class="st0" d="M126.25,8.84c-11.04,2.78-17.99,7.54-21.33,13.56l1.6-1.1c4.4-3.01,9.09-5,14.26-6.23
	c1.81-0.43,3.63-0.76,5.46-1.02V8.84z"/>
<path class="st0" d="M82.15,8.84c11.04,2.78,17.98,7.54,21.32,13.56l-1.6-1.1c-4.4-3.01-9.09-5-14.26-6.23
	c-1.81-0.43-3.64-0.76-5.46-1.02V8.84z"/>
<path class="st1" d="M134.95,14.08c-9.29,0.8-18.59,1.65-27.89,8.01c9.06-3.17,18.38-4.58,27.89-4.25L134.95,14.08z"/>
<path class="st1" d="M73.45,14.08c9.3,0.8,18.59,1.65,27.89,8.01c-9.06-3.17-18.37-4.58-27.89-4.25V14.08z"/>
<path class="st2" d="M141.58,19.32c-13.29-1.61-25.37,0.22-36.56,4.52h-1.71c0,6.47,0,30.35,0,43.04c0,0,1.17,0,1.71,0
	c7.08-2.28,14.27-3.85,21.58-4.5c-2.09-0.67-4.22-2.21-5.91-3.4c-0.14-0.11-0.29-0.21-0.43-0.31c-3.45-2.41-2.27-1.69-5.48-3.02
	c-1.23-0.51-4.63-1.75-5.61-2.24c-2.05-1.03-0.84-2.7,1.15-2.09c2.12,0.65,4.57,1.88,6.71,2.22c0.37,0.06,0.78,0.13,0.87-0.34
	c0.17-0.78-1.96-1.56-2.81-1.96c-2.49-1.15-3.74-1.68-6.33-3.03c-0.87-0.45-2.67-1.18-2.47-2.44c0.28-1.73,2.12-0.63,2.95-0.27
	c1.05,0.45,2.11,0.97,3.18,1.41c1.72,0.69,3.11,1.43,4.76,2.24c0.64,0.31,1.04,0.69,1.64,0.23c-0.03-0.71-0.74-1.03-1.34-1.51
	c-1.52-1.22-8.33-6.03-8.74-6.97c-0.49-1.11,0.51-2.83,2.64-1.32c2.17,1.54,4.89,3.76,7.08,5.44c0.57,0.44,1.14,0.88,1.72,1.32
	c0.74,0.56,1.58,0.48,1.08-0.58c-0.95-2.05-5.07-6.43-6.44-8.67c-0.5-0.81-0.56-1.51,0.37-2c1.63-0.87,3.76,2.45,5.28,4.18
	c1.32,1.51,2.75,3.31,4.21,4.92c0.83,0.91,1.68,1.76,2.54,2.46c0.53,0.44,1.26,1.08,1.84,1.11c1.02,0.07,1.15-0.89,1.15-1.43
	c0.02-4.19-1.49-6.23-0.71-8.24c0.74-1.9,1.89-2.42,2.7-0.07c1.51,4.35,1.75,8.42,3.52,12.71c0.24,0.61,0.41,1.32,0.52,2.02
	l5.34,3.5V19.32z"/>
<path class="st2" d="M66.76,19.32c13.29-1.61,25.37,0.22,36.56,4.52c0,14.35,0,28.69,0,43.04c-11.86-3.82-24-5.64-36.56-4.52l0-7.62
	l6.16-3.06c2.46,0.69,5.76-0.59,8.2-1.48c0.16-0.06,0.32-0.11,0.47-0.17c3.77-1.36,2.51-0.99,5.79-1.41
	c1.26-0.17,4.69-0.47,5.71-0.68c2.14-0.43,1.45-2.27-0.54-2.21c-2.12,0.08-4.67,0.59-6.72,0.38c-0.35-0.04-0.75-0.08-0.71-0.53
	c0.03-0.76,2.18-0.95,3.06-1.1c2.58-0.44,3.86-0.62,6.57-1.21c0.91-0.2,2.75-0.42,2.87-1.63c0.17-1.66-1.78-1.11-2.64-0.98
	c-1.08,0.16-2.18,0.38-3.28,0.51c-1.75,0.22-3.21,0.54-4.92,0.88c-0.66,0.13-1.12,0.38-1.56-0.2c0.2-0.65,0.93-0.76,1.6-1.05
	c1.7-0.74,9.15-3.48,9.76-4.24c0.72-0.9,0.23-2.73-2.1-1.87c-2.37,0.88-5.43,2.24-7.86,3.24c-0.64,0.26-1.27,0.53-1.9,0.78
	c-0.81,0.33-1.57,0.05-0.85-0.8c1.38-1.65,6.25-4.66,8.07-6.37c0.66-0.62,0.88-1.26,0.16-1.94c-1.29-1.2-4.07,1.32-5.89,2.54
	c-1.59,1.05-3.34,2.36-5.09,3.47c-0.99,0.63-1.98,1.21-2.94,1.64c-0.6,0.27-1.43,0.67-1.96,0.56c-0.95-0.2-0.84-1.1-0.71-1.6
	c1.02-3.85,2.91-5.35,2.7-7.4c-0.2-1.93-1.13-2.69-2.47-0.73c-2.47,3.62-3.69,7.31-6.38,10.81c-0.38,0.5-0.71,1.11-0.98,1.72
	l-1.62,0.53V19.32z"/>
<rect x="103.32" y="23.84" class="st3" width="1.71" height="43.04"/>
<polygon class="st2" points="66.76,26.69 66.76,59.77 97.37,56.21 100.09,36.53 95.17,27.2 77.36,23.47 "/>
<path class="st2" d="M126.33,62.4c3.02,0.27,9.17,0.18,12.24,0.13c3.08-0.04,3.08-0.04,3.06-2.9c-0.01-2.86-0.03-8.57-0.49-14.05
	c-0.45-5.48-1.34-10.74-3.73-13.99c-2.39-3.25-6.29-4.5-11.35-4.67c-5.06-0.17-11.28,0.74-14.76,3.22c-3.48,2.49-4.21,6.56-4.8,9.36
	c-0.59,2.8-1.04,4.33-0.92,6.79c0.11,2.46,0.79,5.85,2.68,8.33c1.89,2.49,5,4.07,7.12,4.92c2.12,0.85,3.25,0.96,4.45,1.06
	c1.19,0.1,2.45,0.19,3.02,0.55C123.42,61.52,123.31,62.13,126.33,62.4"/>
<path class="st0" d="M18.82,97.84h170.77c4.95,0,9,4.05,9,9v2.89c0,4.95-4.05,9-9,9H18.82c-4.95,0-9-4.05-9-9v-2.89
	C9.82,101.89,13.87,97.84,18.82,97.84"/>
<path class="st4" d="M95.39,111.43c0,0.57-0.49,1.06-1.06,1.06c-0.57,0-1.06-0.49-1.06-1.06v-4.82c0-0.62,0-0.9-0.11-0.9
	c-0.09,0-0.29,0.22-0.62,0.6l-4.86,5.52c-0.38,0.44-0.97,0.66-1.61,0.66c-0.64,0-1.24-0.22-1.61-0.66l-4.86-5.52
	c-0.33-0.4-0.53-0.6-0.62-0.6c-0.11,0-0.11,0.29-0.11,0.9v4.82c0,0.57-0.49,1.06-1.06,1.06c-0.57,0-1.06-0.49-1.06-1.06v-6.45
	c0-1.17,0.73-2.12,1.9-2.12c0.71,0,1.26,0.4,1.72,0.91l5.08,5.79c0.13,0.15,0.4,0.35,0.62,0.35c0.22,0,0.49-0.2,0.62-0.35l5.06-5.79
	h0.02c0.4-0.55,1.02-0.91,1.72-0.91c1.17,0,1.9,0.95,1.9,2.12V111.43z"/>
<path class="st4" d="M112.69,107.68L112.69,107.68c0-1.06-0.44-2.7-2.47-2.7h-8.93c-2.03,0-2.47,1.63-2.47,2.7
	c0,1.06,0.44,2.7,2.47,2.7h8.93C112.25,110.37,112.69,108.74,112.69,107.68 M110.68,112.49h-10.07c-2.41-0.13-3.84-2.63-3.84-4.82
	c0-2.23,1.52-4.82,4.07-4.82h10.07c2.41,0.13,3.84,2.63,3.84,4.82C114.75,109.91,113.22,112.49,110.68,112.49z"/>
<path class="st4" d="M132.88,103.92c0,0.57-0.49,1.06-1.06,1.06h-6.54v6.45c0,0.57-0.49,1.06-1.06,1.06c-0.57,0-1.06-0.49-1.06-1.06
	v-6.45h-6.63c-0.53-0.04-0.97-0.51-0.97-1.06c0-0.57,0.49-1.06,1.06-1.06h15.2C132.4,102.86,132.88,103.35,132.88,103.92"/>
<path class="st4" d="M149.63,107.68L149.63,107.68c0-1.06-0.44-2.7-2.47-2.7h-8.92c-2.03,0-2.47,1.63-2.47,2.7
	c0,1.06,0.44,2.7,2.47,2.7h8.92C149.18,110.37,149.63,108.74,149.63,107.68 M147.62,112.49h-10.07c-2.41-0.13-3.84-2.63-3.84-4.82
	c0-2.23,1.52-4.82,4.07-4.82h10.07c2.41,0.13,3.84,2.63,3.84,4.82C151.68,109.91,150.16,112.49,147.62,112.49z"/>
<path class="st4" d="M169.73,110.48c0.31,0.24,0.6,0.55,0.6,0.95c0,0.57-0.49,1.06-1.06,1.06c-0.29,0-0.53-0.13-0.75-0.31
	c-2.39-1.77-5.08-3.45-8.26-3.45h-4.4c-0.38,0.07-0.68,0.38-0.68,0.82v1.88c0,0.57-0.51,1.06-1.06,1.06c-0.58,0-1.06-0.49-1.06-1.06
	v-2.12c0-1.48,1.17-2.7,2.67-2.7h11.71c0.44,0,0.84-0.35,0.84-0.82c0-0.44-0.4-0.82-0.84-0.82h-13.32c-0.58,0-1.06-0.49-1.06-1.06
	c0-0.57,0.49-1.06,1.06-1.06h13.23c1.63,0,2.98,1.3,2.98,2.94c0,1.63-1.35,2.94-2.98,2.94h-0.09
	C168.05,109.22,168.87,109.82,169.73,110.48"/>
<path class="st4" d="M19.33,102.94h13.23c1.63,0,2.98,1.3,2.98,2.94c0,1.63-1.35,2.94-2.98,2.94H21.08
	c-0.38,0.07-0.68,0.38-0.68,0.82v1.88c0,0.57-0.51,1.06-1.06,1.06c-0.57,0-1.06-0.49-1.06-1.06v-2.12c0-1.48,1.15-2.7,2.65-2.7
	h11.73c0.44,0,0.84-0.35,0.84-0.82c0-0.44-0.4-0.82-0.84-0.82H19.33c-0.57,0-1.06-0.49-1.06-1.06
	C18.27,103.43,18.76,102.94,19.33,102.94"/>
<path class="st4" d="M39.61,112.57L39.61,112.57c-1.3,0-2.7-1.15-2.7-2.89v-1.99c0-0.8,0.44-0.99,1.41-0.99h14.82
	c0.57,0,1.06,0.49,1.06,1.06c0,0.57-0.49,1.06-1.06,1.06H39.04v1.08c0,0.29,0.29,0.55,0.68,0.55h13.92c0.57,0,1.06,0.49,1.06,1.06
	c0,0.57-0.49,1.06-1.06,1.06H39.61z M37.98,102.94h15.66c0.57,0,1.06,0.49,1.06,1.06c0,0.57-0.49,1.06-1.06,1.06H37.98
	c-0.57,0-1.06-0.49-1.06-1.06C36.92,103.43,37.4,102.94,37.98,102.94z"/>
<path class="st4" d="M60.13,102.94h12.88c0.57,0,1.06,0.49,1.06,1.06c0,0.57-0.49,1.06-1.06,1.06H60.6c-2.03,0-2.47,1.63-2.47,2.7
	c0,1.06,0.44,2.7,2.47,2.7h12.42c0.57,0,1.06,0.49,1.06,1.06c0,0.57-0.49,1.06-1.06,1.06h-13.1c-2.41,0-3.84-2.63-3.84-4.82
	C56.07,105.53,57.59,102.94,60.13,102.94"/>
<path class="st5" d="M187.63,109.23c0,0.88-0.68,0.86-1.29,0.86l-12.31,0c-1.61,0.01-1.45,2.22,0,2.22h13.02
	c0.94,0,1.59-0.36,2.13-0.81c1.62-1.35,1.11-4.25-1.08-4.96c-0.98-0.32-3.27-0.17-4.56-0.17c-0.57,0-7.89,0.07-8.26-0.04
	c-0.73-0.21-0.75-1.3,0.05-1.45c0.73-0.14,11.3,0.12,13.15-0.02c0.72-0.05,1.27-0.28,1.4-0.97c0.12-0.64-0.45-1.25-1.11-1.25h-13.24
	c-0.43,0-0.89,0.15-1.19,0.31c-2.8,1.41-2.1,5.63,1.62,5.63l10.74,0C187.01,108.58,187.63,108.55,187.63,109.23"/>
<path class="st2" d="M42.49,74.59h123.42c4.95,0,9,4.05,9,9v2.89c0,4.95-4.05,9-9,9H42.49c-4.95,0-9-4.05-9-9v-2.89
	C33.49,78.64,37.54,74.59,42.49,74.59"/>
<path class="st4" d="M156.09,89.91l0.4-1.91h5.22c0.17,0,0.3-0.03,0.38-0.1c0.08-0.07,0.14-0.19,0.18-0.38l0.29-1.36
	c0.01-0.04,0.01-0.09,0.01-0.16c0-0.17-0.13-0.26-0.38-0.26h-3.86c-0.4,0-0.68-0.08-0.86-0.25c-0.18-0.17-0.27-0.41-0.27-0.72
	c0-0.12,0.01-0.26,0.04-0.42l0.54-2.53c0.13-0.58,0.34-1.01,0.64-1.29c0.3-0.28,0.77-0.42,1.4-0.42h6.09l-0.39,1.87h-5.19
	c-0.15,0-0.27,0.03-0.33,0.1c-0.07,0.07-0.12,0.19-0.16,0.36l-0.27,1.29c-0.01,0.04-0.02,0.07-0.02,0.1
	c-0.01,0.03-0.01,0.06-0.01,0.09c0,0.14,0.11,0.22,0.32,0.22h3.92c0.41,0,0.7,0.09,0.88,0.26c0.18,0.17,0.27,0.41,0.27,0.72
	c0,0.13-0.01,0.26-0.04,0.41l-0.56,2.68c-0.13,0.58-0.34,1.01-0.64,1.29c-0.3,0.28-0.76,0.42-1.39,0.42H156.09z M140.55,82.6
	c0.01-0.05,0.02-0.09,0.02-0.13c0-0.04,0.01-0.07,0.01-0.1c0-0.22-0.17-0.33-0.51-0.33h-2.73c-0.19,0-0.33,0.04-0.41,0.12
	c-0.08,0.08-0.15,0.23-0.2,0.45l-1.04,4.87c-0.02,0.1-0.03,0.16-0.03,0.19c0,0.2,0.14,0.3,0.42,0.3h2.73c0.23,0,0.4-0.04,0.49-0.12
	c0.1-0.08,0.16-0.2,0.2-0.38L140.55,82.6z M134.67,89.91c-0.49,0-0.85-0.09-1.06-0.26c-0.22-0.17-0.33-0.44-0.33-0.8
	c0-0.18,0.03-0.4,0.09-0.65l1.35-6.38c0.13-0.58,0.34-1.01,0.64-1.29c0.3-0.28,0.76-0.42,1.39-0.42h4.87c0.49,0,0.84,0.09,1.06,0.26
	c0.21,0.17,0.32,0.44,0.32,0.81c0,0.1-0.01,0.2-0.02,0.3c-0.01,0.11-0.03,0.22-0.05,0.33l-1.35,6.38c-0.13,0.58-0.34,1.01-0.64,1.29
	c-0.3,0.28-0.76,0.42-1.38,0.42H134.67z M110.27,89.91l0.41-1.91h5.22c0.17,0,0.3-0.03,0.38-0.1c0.08-0.07,0.14-0.19,0.18-0.38
	l0.29-1.36c0.01-0.04,0.01-0.09,0.01-0.16c0-0.17-0.13-0.26-0.38-0.26h-3.86c-0.4,0-0.68-0.08-0.86-0.25
	c-0.18-0.17-0.27-0.41-0.27-0.72c0-0.12,0.01-0.26,0.04-0.42l0.54-2.53c0.13-0.58,0.34-1.01,0.64-1.29c0.3-0.28,0.77-0.42,1.4-0.42
	h6.09l-0.39,1.87h-5.19c-0.15,0-0.26,0.03-0.33,0.1c-0.07,0.07-0.12,0.19-0.16,0.36l-0.27,1.29c-0.01,0.04-0.02,0.07-0.02,0.1
	c0,0.03-0.01,0.06-0.01,0.09c0,0.14,0.11,0.22,0.32,0.22h3.92c0.41,0,0.7,0.09,0.88,0.26s0.27,0.41,0.27,0.72
	c0,0.13-0.01,0.26-0.04,0.41l-0.56,2.68c-0.13,0.58-0.34,1.01-0.64,1.29c-0.3,0.28-0.76,0.42-1.39,0.42H110.27z M93.16,89.91
	l0.67-3.2c0.01-0.05,0.02-0.09,0.02-0.12c0-0.03,0.01-0.06,0.01-0.09c0-0.15-0.14-0.23-0.41-0.23h-3.17l-0.77,3.64h-2.2l1.52-7.16
	h2.2l-0.41,1.89h3.01c0.21,0,0.35-0.03,0.43-0.1c0.07-0.07,0.13-0.2,0.18-0.4l0.35-1.59c0.01-0.05,0.02-0.09,0.02-0.13
	c0-0.04,0.01-0.07,0.01-0.1c0-0.12-0.03-0.19-0.1-0.23c-0.07-0.04-0.18-0.06-0.35-0.06h-5.19l0.4-1.91h6.22
	c0.5,0,0.86,0.09,1.08,0.27c0.22,0.18,0.33,0.45,0.33,0.82c0,0.09-0.01,0.18-0.02,0.27c-0.01,0.1-0.03,0.2-0.05,0.3l-0.45,2.13
	c-0.11,0.5-0.3,0.86-0.58,1.06c-0.28,0.21-0.59,0.33-0.93,0.37c0.31,0.02,0.57,0.09,0.78,0.21c0.21,0.12,0.32,0.34,0.32,0.64
	c0,0.05,0,0.1,0,0.15c0,0.05-0.01,0.11-0.03,0.17l-0.71,3.4H93.16z M65.79,89.91c-0.5,0-0.86-0.09-1.07-0.26
	c-0.21-0.17-0.32-0.44-0.32-0.81c0-0.1,0-0.2,0.01-0.3c0.01-0.11,0.03-0.22,0.06-0.33l1.71-8.08h2.2l-1.55,7.32
	c-0.03,0.12-0.04,0.2-0.04,0.26c0,0.11,0.03,0.18,0.1,0.21c0.07,0.03,0.18,0.05,0.33,0.05h2.89c0.19,0,0.33-0.03,0.42-0.09
	c0.09-0.06,0.15-0.21,0.2-0.43l1.55-7.32h2.11l-1.71,8.08c-0.13,0.58-0.34,1.01-0.64,1.29c-0.3,0.28-0.76,0.42-1.38,0.42H65.79z
	 M43.85,89.91c-0.49,0-0.84-0.09-1.06-0.26c-0.21-0.17-0.32-0.44-0.32-0.81c0-0.1,0-0.2,0.01-0.3c0.01-0.1,0.03-0.21,0.06-0.34
	l1.34-6.38c0.13-0.58,0.34-1.01,0.64-1.29c0.3-0.28,0.76-0.42,1.38-0.42h5.51l-0.4,1.95H46.6c-0.23,0-0.39,0.04-0.47,0.11
	c-0.08,0.07-0.15,0.22-0.2,0.44l-1.03,4.77c-0.01,0.05-0.02,0.09-0.02,0.12c0,0.03-0.01,0.07-0.01,0.11c0,0.11,0.03,0.18,0.1,0.23
	c0.07,0.05,0.19,0.07,0.38,0.07h4.45l-0.42,1.98H43.85z"/>
<path class="st4" d="M86.11,36.95l11.83,5.03l1.16,6.34l-8.89-3.94c0,0-1.39-0.54-2.16-2.63C87.27,39.66,86.11,36.95,86.11,36.95"/>
<path class="st4" d="M89.64,45.54l9.6,4.08l0.94,5.14l-7.22-3.2c0,0-1.13-0.44-1.76-2.13C90.58,47.74,89.64,45.54,89.64,45.54"/>
<path class="st4" d="M92.85,52.47l7.4,3.14l0.72,3.96l-5.56-2.47c0,0-0.87-0.34-1.35-1.64C93.58,54.16,92.85,52.47,92.85,52.47"/>
<path class="st4" d="M115.5,52.47l-7.39,3.14l-0.73,3.96l5.56-2.47c0,0,0.87-0.34,1.35-1.64C114.78,54.16,115.5,52.47,115.5,52.47"
	/>
<path class="st4" d="M124.07,27.61l-19.87,8.58l-19.87-8.58c0,0-2.09-0.39-1.16,2.09c0.93,2.47,2.09,5.79,2.09,5.79l18.94,7.9
	l18.94-7.9c0,0,1.16-3.32,2.09-5.79C126.16,27.22,124.07,27.61,124.07,27.61"/>
<path class="st4" d="M122.29,36.95l-11.83,5.03l-1.16,6.34l8.89-3.94c0,0,1.39-0.54,2.16-2.63
	C121.13,39.66,122.29,36.95,122.29,36.95"/>
<path class="st4" d="M118.72,45.54l-9.6,4.08l-0.94,5.14l7.22-3.2c0,0,1.13-0.44,1.76-2.13C117.78,47.74,118.72,45.54,118.72,45.54"
	/>
</svg>
