<?xml version="1.0" encoding="utf-8"?>
<!-- Generator: Adobe Illustrator 25.2.1, SVG Export Plug-In . SVG Version: 6.00 Build 0)  -->
<svg version="1.1" id="Layer_1" xmlns="http://www.w3.org/2000/svg" xmlns:xlink="http://www.w3.org/1999/xlink" x="0px" y="0px"
	 viewBox="0 0 208.4 121.6" style="enable-background:new 0 0 208.4 121.6;" xml:space="preserve">
<style type="text/css">
	.st0{fill-rule:evenodd;clip-rule:evenodd;fill:#00ADEE;}
	.st1{fill-rule:evenodd;clip-rule:evenodd;fill:#0089CB;}
	.st2{fill-rule:evenodd;clip-rule:evenodd;fill:#003354;}
	.st3{fill-rule:evenodd;clip-rule:evenodd;fill:#004F79;}
	.st4{fill:#FFFFFF;}
	.st5{fill-rule:evenodd;clip-rule:evenodd;fill:#FFFFFF;}
	.st6{fill:#003354;}
	.st7{fill:#004F79;}
	.st8{fill:#0089CB;}
	.st9{fill:#00ADEE;}
</style>
<path class="st0" d="M-26.5-335.5c-11,2.8-18,7.5-21.3,13.6l1.6-1.1c4.4-3,9.1-5,14.3-6.2c1.8-0.4,3.6-0.8,5.5-1L-26.5-335.5
	L-26.5-335.5z"/>
<path class="st0" d="M-70.6-335.5c11,2.8,18,7.5,21.3,13.6l-1.6-1.1c-4.4-3-9.1-5-14.3-6.2c-1.8-0.4-3.6-0.8-5.5-1V-335.5z"/>
<path class="st1" d="M-17.8-330.2c-9.3,0.8-18.6,1.6-27.9,8c9.1-3.2,18.4-4.6,27.9-4.2V-330.2z"/>
<path class="st1" d="M-79.3-330.2c9.3,0.8,18.6,1.6,27.9,8c-9.1-3.2-18.4-4.6-27.9-4.2V-330.2z"/>
<path class="st2" d="M-11.2-325c-13.3-1.6-25.4,0.2-36.6,4.5h-1.7c0,6.5,0,30.4,0,43c0,0,1.2,0,1.7,0c7.1-2.3,14.3-3.9,21.6-4.5
	c-2.1-0.7-4.2-2.2-5.9-3.4c-0.1-0.1-0.3-0.2-0.4-0.3c-3.5-2.4-2.3-1.7-5.5-3c-1.2-0.5-4.6-1.8-5.6-2.2c-2-1-0.8-2.7,1.2-2.1
	c2.1,0.6,4.6,1.9,6.7,2.2c0.4,0.1,0.8,0.1,0.9-0.3c0.2-0.8-2-1.6-2.8-2c-2.5-1.1-3.7-1.7-6.3-3c-0.9-0.5-2.7-1.2-2.5-2.4
	c0.3-1.7,2.1-0.6,3-0.3c1,0.5,2.1,1,3.2,1.4c1.7,0.7,3.1,1.4,4.8,2.2c0.6,0.3,1,0.7,1.6,0.2c0-0.7-0.7-1-1.3-1.5
	c-1.5-1.2-8.3-6-8.7-7c-0.5-1.1,0.5-2.8,2.6-1.3c2.2,1.5,4.9,3.8,7.1,5.4c0.6,0.4,1.1,0.9,1.7,1.3c0.7,0.6,1.6,0.5,1.1-0.6
	c-0.9-2-5.1-6.4-6.4-8.7c-0.5-0.8-0.6-1.5,0.4-2c1.6-0.9,3.8,2.5,5.3,4.2c1.3,1.5,2.8,3.3,4.2,4.9c0.8,0.9,1.7,1.8,2.5,2.5
	c0.5,0.4,1.3,1.1,1.8,1.1c1,0.1,1.1-0.9,1.1-1.4c0-4.2-1.5-6.2-0.7-8.2c0.7-1.9,1.9-2.4,2.7-0.1c1.5,4.4,1.8,8.4,3.5,12.7
	c0.2,0.6,0.4,1.3,0.5,2l5.3,3.5C-11.2-288-11.2-325-11.2-325z"/>
<path class="st2" d="M-86-325c13.3-1.6,25.4,0.2,36.6,4.5c0,14.4,0,28.7,0,43c-11.9-3.8-24-5.6-36.6-4.5v-7.6l6.2-3.1
	c2.5,0.7,5.8-0.6,8.2-1.5c0.2-0.1,0.3-0.1,0.5-0.2c3.8-1.4,2.5-1,5.8-1.4c1.3-0.2,4.7-0.5,5.7-0.7c2.1-0.4,1.5-2.3-0.5-2.2
	c-2.1,0.1-4.7,0.6-6.7,0.4c-0.3,0-0.8-0.1-0.7-0.5c0-0.8,2.2-1,3.1-1.1c2.6-0.4,3.9-0.6,6.6-1.2c0.9-0.2,2.8-0.4,2.9-1.6
	c0.2-1.7-1.8-1.1-2.6-1c-1.1,0.2-2.2,0.4-3.3,0.5c-1.8,0.2-3.2,0.5-4.9,0.9c-0.7,0.1-1.1,0.4-1.6-0.2c0.2-0.6,0.9-0.8,1.6-1
	c1.7-0.7,9.2-3.5,9.8-4.2c0.7-0.9,0.2-2.7-2.1-1.9c-2.4,0.9-5.4,2.2-7.9,3.2c-0.6,0.3-1.3,0.5-1.9,0.8c-0.8,0.3-1.6,0-0.8-0.8
	c1.4-1.6,6.2-4.7,8.1-6.4c0.7-0.6,0.9-1.3,0.2-1.9c-1.3-1.2-4.1,1.3-5.9,2.5c-1.6,1-3.3,2.4-5.1,3.5c-1,0.6-2,1.2-2.9,1.6
	c-0.6,0.3-1.4,0.7-2,0.6c-0.9-0.2-0.8-1.1-0.7-1.6c1-3.9,2.9-5.4,2.7-7.4c-0.2-1.9-1.1-2.7-2.5-0.7c-2.5,3.6-3.7,7.3-6.4,10.8
	c-0.4,0.5-0.7,1.1-1,1.7l-1.6,0.5L-86-325L-86-325z"/>
<rect x="-49.5" y="-320.5" class="st3" width="1.7" height="43"/>
<polygon class="st2" points="-86,-317.6 -86,-284.5 -55.4,-288.1 -52.7,-307.8 -57.6,-317.1 -75.4,-320.8 "/>
<path class="st2" d="M-26.5-281.9c3,0.3,9.2,0.2,12.2,0.1c3.1,0,3.1,0,3.1-2.9c0-2.9,0-8.6-0.5-14c-0.4-5.5-1.3-10.7-3.7-14
	s-6.3-4.5-11.4-4.7s-11.3,0.7-14.8,3.2c-3.5,2.5-4.2,6.6-4.8,9.4s-1,4.3-0.9,6.8c0.1,2.5,0.8,5.9,2.7,8.3c1.9,2.5,5,4.1,7.1,4.9
	s3.2,1,4.5,1.1c1.2,0.1,2.5,0.2,3,0.5C-29.4-282.8-29.5-282.2-26.5-281.9"/>
<path class="st0" d="M-134-246.4H36.8c5,0,9,4.1,9,9v2.9c0,4.9-4,9-9,9H-134c-4.9,0-9-4.1-9-9v-2.9
	C-143-242.4-138.9-246.4-134-246.4"/>
<path class="st4" d="M-57.4-232.9c0,0.6-0.5,1.1-1.1,1.1s-1.1-0.5-1.1-1.1v-4.8c0-0.6,0-0.9-0.1-0.9c-0.1,0-0.3,0.2-0.6,0.6
	l-4.9,5.5c-0.4,0.4-1,0.7-1.6,0.7s-1.2-0.2-1.6-0.7l-4.9-5.5c-0.3-0.4-0.5-0.6-0.6-0.6c-0.1,0-0.1,0.3-0.1,0.9v4.8
	c0,0.6-0.5,1.1-1.1,1.1s-1.1-0.5-1.1-1.1v-6.4c0-1.2,0.7-2.1,1.9-2.1c0.7,0,1.3,0.4,1.7,0.9l5.1,5.8c0.1,0.1,0.4,0.4,0.6,0.4
	s0.5-0.2,0.6-0.4l5.1-5.8h0c0.4-0.6,1-0.9,1.7-0.9c1.2,0,1.9,0.9,1.9,2.1C-57.4-239.3-57.4-232.9-57.4-232.9z"/>
<path class="st4" d="M-40.1-236.6L-40.1-236.6c0-1.1-0.4-2.7-2.5-2.7h-8.9c-2,0-2.5,1.6-2.5,2.7c0,1.1,0.4,2.7,2.5,2.7h8.9
	C-40.5-233.9-40.1-235.6-40.1-236.6 M-42.1-231.8h-10.1c-2.4-0.1-3.8-2.6-3.8-4.8c0-2.2,1.5-4.8,4.1-4.8h10.1
	c2.4,0.1,3.8,2.6,3.8,4.8C-38-234.4-39.5-231.8-42.1-231.8z"/>
<path class="st4" d="M-19.9-240.4c0,0.6-0.5,1.1-1.1,1.1h-6.5v6.4c0,0.6-0.5,1.1-1.1,1.1s-1.1-0.5-1.1-1.1v-6.4h-6.6
	c-0.5,0-1-0.5-1-1.1c0-0.6,0.5-1.1,1.1-1.1h15.2C-20.4-241.4-19.9-240.9-19.9-240.4"/>
<path class="st4" d="M-3.2-236.6L-3.2-236.6c0-1.1-0.4-2.7-2.5-2.7h-8.9c-2,0-2.5,1.6-2.5,2.7c0,1.1,0.4,2.7,2.5,2.7h8.9
	C-3.6-233.9-3.2-235.6-3.2-236.6 M-5.2-231.8h-10.1c-2.4-0.1-3.8-2.6-3.8-4.8c0-2.2,1.5-4.8,4.1-4.8h10.1c2.4,0.1,3.8,2.6,3.8,4.8
	C-1.1-234.4-2.6-231.8-5.2-231.8z"/>
<path class="st4" d="M17-233.8c0.3,0.2,0.6,0.6,0.6,0.9c0,0.6-0.5,1.1-1.1,1.1c-0.3,0-0.5-0.1-0.8-0.3c-2.4-1.8-5.1-3.4-8.3-3.4H3.1
	c-0.4,0.1-0.7,0.4-0.7,0.8v1.9c0,0.6-0.5,1.1-1.1,1.1c-0.6,0-1.1-0.5-1.1-1.1v-2.1c0-1.5,1.2-2.7,2.7-2.7h11.7
	c0.4,0,0.8-0.4,0.8-0.8c0-0.4-0.4-0.8-0.8-0.8H1.3c-0.6,0-1.1-0.5-1.1-1.1c0-0.6,0.5-1.1,1.1-1.1h13.2c1.6,0,3,1.3,3,2.9
	c0,1.6-1.4,2.9-3,2.9h-0.1C15.3-235.1,16.1-234.5,17-233.8"/>
<path class="st4" d="M-133.4-241.4h13.2c1.6,0,3,1.3,3,2.9c0,1.6-1.3,2.9-3,2.9h-11.5c-0.4,0.1-0.7,0.4-0.7,0.8v1.9
	c0,0.6-0.5,1.1-1.1,1.1c-0.6,0-1.1-0.5-1.1-1.1v-2.1c0-1.5,1.1-2.7,2.6-2.7h11.7c0.4,0,0.8-0.4,0.8-0.8c0-0.4-0.4-0.8-0.8-0.8h-13.3
	c-0.6,0-1.1-0.5-1.1-1.1C-134.5-240.9-134-241.4-133.4-241.4"/>
<path class="st4" d="M-113.2-231.7L-113.2-231.7c-1.3,0-2.7-1.1-2.7-2.9v-2c0-0.8,0.4-1,1.4-1h14.8c0.6,0,1.1,0.5,1.1,1.1
	c0,0.6-0.5,1.1-1.1,1.1h-14.1v1.1c0,0.3,0.3,0.6,0.7,0.6h13.9c0.6,0,1.1,0.5,1.1,1.1c0,0.6-0.5,1.1-1.1,1.1L-113.2-231.7
	L-113.2-231.7z M-114.8-241.4h15.7c0.6,0,1.1,0.5,1.1,1.1c0,0.6-0.5,1.1-1.1,1.1h-15.7c-0.6,0-1.1-0.5-1.1-1.1
	C-115.9-240.9-115.4-241.4-114.8-241.4z"/>
<path class="st4" d="M-92.6-241.4h12.9c0.6,0,1.1,0.5,1.1,1.1c0,0.6-0.5,1.1-1.1,1.1h-12.4c-2,0-2.5,1.6-2.5,2.7
	c0,1.1,0.4,2.7,2.5,2.7h12.4c0.6,0,1.1,0.5,1.1,1.1c0,0.6-0.5,1.1-1.1,1.1h-13.1c-2.4,0-3.8-2.6-3.8-4.8
	C-96.7-238.8-95.2-241.4-92.6-241.4"/>
<path class="st5" d="M34.8-235.1c0,0.9-0.7,0.9-1.3,0.9H21.2c-1.6,0-1.5,2.2,0,2.2h13c0.9,0,1.6-0.4,2.1-0.8c1.6-1.4,1.1-4.2-1.1-5
	c-1-0.3-3.3-0.2-4.6-0.2c-0.6,0-7.9,0.1-8.3,0c-0.7-0.2-0.8-1.3,0-1.4c0.7-0.1,11.3,0.1,13.2,0c0.7-0.1,1.3-0.3,1.4-1
	c0.1-0.6-0.5-1.2-1.1-1.2H22.8c-0.4,0-0.9,0.1-1.2,0.3c-2.8,1.4-2.1,5.6,1.6,5.6h10.7C34.2-235.7,34.8-235.7,34.8-235.1"/>
<path class="st2" d="M-110.3-269.7H13.1c4.9,0,9,4,9,9v2.9c0,4.9-4,9-9,9h-123.4c-4.9,0-9-4.1-9-9v-2.9
	C-119.3-265.7-115.2-269.7-110.3-269.7"/>
<path class="st4" d="M3.3-254.4l0.4-1.9h5.2c0.2,0,0.3,0,0.4-0.1s0.1-0.2,0.2-0.4l0.3-1.4c0,0,0-0.1,0-0.2c0-0.2-0.1-0.3-0.4-0.3
	H5.6c-0.4,0-0.7-0.1-0.9-0.2c-0.2-0.2-0.3-0.4-0.3-0.7c0-0.1,0-0.3,0-0.4l0.5-2.5c0.1-0.6,0.3-1,0.6-1.3c0.3-0.3,0.8-0.4,1.4-0.4
	h6.1l-0.4,1.9H7.6c-0.2,0-0.3,0-0.3,0.1c-0.1,0.1-0.1,0.2-0.2,0.4l-0.3,1.3c0,0,0,0.1,0,0.1c0,0,0,0.1,0,0.1c0,0.1,0.1,0.2,0.3,0.2
	H11c0.4,0,0.7,0.1,0.9,0.3s0.3,0.4,0.3,0.7c0,0.1,0,0.3,0,0.4l-0.6,2.7c-0.1,0.6-0.3,1-0.6,1.3s-0.8,0.4-1.4,0.4L3.3-254.4
	L3.3-254.4z M-12.2-261.7c0,0,0-0.1,0-0.1s0-0.1,0-0.1c0-0.2-0.2-0.3-0.5-0.3h-2.7c-0.2,0-0.3,0-0.4,0.1s-0.1,0.2-0.2,0.5l-1,4.9
	c0,0.1,0,0.2,0,0.2c0,0.2,0.1,0.3,0.4,0.3h2.7c0.2,0,0.4,0,0.5-0.1c0.1-0.1,0.2-0.2,0.2-0.4L-12.2-261.7z M-18.1-254.4
	c-0.5,0-0.9-0.1-1.1-0.3c-0.2-0.2-0.3-0.4-0.3-0.8c0-0.2,0-0.4,0.1-0.6l1.4-6.4c0.1-0.6,0.3-1,0.6-1.3s0.8-0.4,1.4-0.4h4.9
	c0.5,0,0.8,0.1,1.1,0.3c0.2,0.2,0.3,0.4,0.3,0.8c0,0.1,0,0.2,0,0.3c0,0.1,0,0.2-0.1,0.3l-1.4,6.4c-0.1,0.6-0.3,1-0.6,1.3
	s-0.8,0.4-1.4,0.4L-18.1-254.4L-18.1-254.4z M-42.5-254.4l0.4-1.9h5.2c0.2,0,0.3,0,0.4-0.1s0.1-0.2,0.2-0.4l0.3-1.4c0,0,0-0.1,0-0.2
	c0-0.2-0.1-0.3-0.4-0.3h-3.9c-0.4,0-0.7-0.1-0.9-0.2s-0.3-0.4-0.3-0.7c0-0.1,0-0.3,0-0.4l0.5-2.5c0.1-0.6,0.3-1,0.6-1.3
	s0.8-0.4,1.4-0.4h6.1l-0.4,1.9h-5.2c-0.2,0-0.3,0-0.3,0.1c-0.1,0.1-0.1,0.2-0.2,0.4l-0.3,1.3c0,0,0,0.1,0,0.1s0,0.1,0,0.1
	c0,0.1,0.1,0.2,0.3,0.2h3.9c0.4,0,0.7,0.1,0.9,0.3s0.3,0.4,0.3,0.7c0,0.1,0,0.3,0,0.4l-0.6,2.7c-0.1,0.6-0.3,1-0.6,1.3
	s-0.8,0.4-1.4,0.4L-42.5-254.4L-42.5-254.4z M-59.6-254.4l0.7-3.2c0,0,0-0.1,0-0.1s0-0.1,0-0.1c0-0.1-0.1-0.2-0.4-0.2h-3.2l-0.8,3.6
	h-2.2l1.5-7.2h2.2l-0.4,1.9h3c0.2,0,0.3,0,0.4-0.1c0.1-0.1,0.1-0.2,0.2-0.4l0.3-1.6c0,0,0-0.1,0-0.1s0-0.1,0-0.1
	c0-0.1,0-0.2-0.1-0.2s-0.2-0.1-0.3-0.1h-5.2l0.4-1.9h6.2c0.5,0,0.9,0.1,1.1,0.3s0.3,0.5,0.3,0.8c0,0.1,0,0.2,0,0.3
	c0,0.1,0,0.2,0,0.3l-0.5,2.1c-0.1,0.5-0.3,0.9-0.6,1.1c-0.3,0.2-0.6,0.3-0.9,0.4c0.3,0,0.6,0.1,0.8,0.2s0.3,0.3,0.3,0.6
	c0,0,0,0.1,0,0.1s0,0.1,0,0.2l-0.7,3.4L-59.6-254.4L-59.6-254.4z M-87-254.4c-0.5,0-0.9-0.1-1.1-0.3s-0.3-0.4-0.3-0.8
	c0-0.1,0-0.2,0-0.3c0-0.1,0-0.2,0.1-0.3l1.7-8.1h2.2l-1.6,7.3c0,0.1,0,0.2,0,0.3c0,0.1,0,0.2,0.1,0.2s0.2,0,0.3,0h2.9
	c0.2,0,0.3,0,0.4-0.1s0.2-0.2,0.2-0.4l1.6-7.3h2.1l-1.7,8.1c-0.1,0.6-0.3,1-0.6,1.3s-0.8,0.4-1.4,0.4L-87-254.4L-87-254.4z
	 M-108.9-254.4c-0.5,0-0.8-0.1-1.1-0.3c-0.2-0.2-0.3-0.4-0.3-0.8c0-0.1,0-0.2,0-0.3s0-0.2,0.1-0.3l1.3-6.4c0.1-0.6,0.3-1,0.6-1.3
	s0.8-0.4,1.4-0.4h5.5l-0.4,2h-4.4c-0.2,0-0.4,0-0.5,0.1c-0.1,0.1-0.2,0.2-0.2,0.4l-1,4.8c0,0,0,0.1,0,0.1s0,0.1,0,0.1
	c0,0.1,0,0.2,0.1,0.2c0.1,0,0.2,0.1,0.4,0.1h4.4l-0.4,2L-108.9-254.4L-108.9-254.4z"/>
<path class="st4" d="M-66.7-307.3l11.8,5l1.2,6.3l-8.9-3.9c0,0-1.4-0.5-2.2-2.6C-65.5-304.6-66.7-307.3-66.7-307.3"/>
<path class="st4" d="M-63.1-298.8l9.6,4.1l0.9,5.1l-7.2-3.2c0,0-1.1-0.4-1.8-2.1C-62.2-296.6-63.1-298.8-63.1-298.8"/>
<path class="st4" d="M-59.9-291.8l7.4,3.1l0.7,4l-5.6-2.5c0,0-0.9-0.3-1.3-1.6C-59.2-290.1-59.9-291.8-59.9-291.8"/>
<path class="st4" d="M-37.3-291.8l-7.4,3.1l-0.7,4l5.6-2.5c0,0,0.9-0.3,1.3-1.6C-38-290.1-37.3-291.8-37.3-291.8"/>
<path class="st4" d="M-28.7-316.7l-19.9,8.6l-19.9-8.6c0,0-2.1-0.4-1.2,2.1c0.9,2.5,2.1,5.8,2.1,5.8l18.9,7.9l18.9-7.9
	c0,0,1.2-3.3,2.1-5.8C-26.6-317.1-28.7-316.7-28.7-316.7"/>
<path class="st4" d="M-30.5-307.3l-11.8,5l-1.2,6.3l8.9-3.9c0,0,1.4-0.5,2.2-2.6C-31.6-304.6-30.5-307.3-30.5-307.3"/>
<path class="st4" d="M-34-298.8l-9.6,4.1l-0.9,5.1l7.2-3.2c0,0,1.1-0.4,1.8-2.1C-35-296.6-34-298.8-34-298.8"/>
<path class="st0" d="M126.7,5.8c-11,2.8-18,7.5-21.3,13.6l1.6-1.1c4.4-3,9.1-5,14.3-6.2c1.8-0.4,3.6-0.8,5.5-1L126.7,5.8L126.7,5.8z
	"/>
<path class="st0" d="M82.6,5.8c11,2.8,18,7.5,21.3,13.6l-1.6-1.1c-4.4-3-9.1-5-14.3-6.2c-1.8-0.4-3.6-0.8-5.5-1V5.8z"/>
<path class="st0" d="M135.4,11.1c-9.3,0.8-18.6,1.6-27.9,8c9.1-3.2,18.4-4.6,27.9-4.2V11.1z"/>
<path class="st0" d="M73.9,11.1c9.3,0.8,18.6,1.6,27.9,8c-9.1-3.2-18.4-4.6-27.9-4.2V11.1z"/>
<path class="st5" d="M142.1,16.3c-13.3-1.6-25.4,0.2-36.6,4.5h-1.7c0,6.5,0,30.3,0,43c0,0,1.2,0,1.7,0c7.1-2.3,14.3-3.8,21.6-4.5
	c-2.1-0.7-4.2-2.2-5.9-3.4c-0.1-0.1-0.3-0.2-0.4-0.3c-3.4-2.4-2.3-1.7-5.5-3c-1.2-0.5-4.6-1.8-5.6-2.2c-2.1-1-0.8-2.7,1.2-2.1
	c2.1,0.7,4.6,1.9,6.7,2.2c0.4,0.1,0.8,0.1,0.9-0.3c0.2-0.8-2-1.6-2.8-2c-2.5-1.2-3.7-1.7-6.3-3c-0.9-0.5-2.7-1.2-2.5-2.4
	c0.3-1.7,2.1-0.6,2.9-0.3c1.1,0.5,2.1,1,3.2,1.4c1.7,0.7,3.1,1.4,4.8,2.2c0.6,0.3,1,0.7,1.6,0.2c0-0.7-0.7-1-1.3-1.5
	c-1.5-1.2-8.3-6-8.7-7c-0.5-1.1,0.5-2.8,2.6-1.3c2.2,1.5,4.9,3.8,7.1,5.4c0.6,0.4,1.1,0.9,1.7,1.3c0.7,0.6,1.6,0.5,1.1-0.6
	c-0.9-2-5.1-6.4-6.4-8.7c-0.5-0.8-0.6-1.5,0.4-2c1.6-0.9,3.8,2.5,5.3,4.2c1.3,1.5,2.8,3.3,4.2,4.9c0.8,0.9,1.7,1.8,2.5,2.5
	c0.5,0.4,1.3,1.1,1.8,1.1c1,0.1,1.1-0.9,1.1-1.4c0-4.2-1.5-6.2-0.7-8.2c0.7-1.9,1.9-2.4,2.7-0.1c1.5,4.3,1.8,8.4,3.5,12.7
	c0.2,0.6,0.4,1.3,0.5,2l5.3,3.5V16.3z"/>
<path class="st5" d="M67.2,16.3c13.3-1.6,25.4,0.2,36.6,4.5c0,14.3,0,28.7,0,43c-11.9-3.8-24-5.6-36.6-4.5v-7.6l6.2-3.1
	c2.5,0.7,5.8-0.6,8.2-1.5c0.2-0.1,0.3-0.1,0.5-0.2c3.8-1.4,2.5-1,5.8-1.4c1.3-0.2,4.7-0.5,5.7-0.7c2.1-0.4,1.4-2.3-0.5-2.2
	c-2.1,0.1-4.7,0.6-6.7,0.4c-0.3,0-0.8-0.1-0.7-0.5c0-0.8,2.2-1,3.1-1.1c2.6-0.4,3.9-0.6,6.6-1.2c0.9-0.2,2.8-0.4,2.9-1.6
	c0.2-1.7-1.8-1.1-2.6-1c-1.1,0.2-2.2,0.4-3.3,0.5c-1.8,0.2-3.2,0.5-4.9,0.9c-0.7,0.1-1.1,0.4-1.6-0.2c0.2-0.7,0.9-0.8,1.6-1
	c1.7-0.7,9.2-3.5,9.8-4.2c0.7-0.9,0.2-2.7-2.1-1.9c-2.4,0.9-5.4,2.2-7.9,3.2c-0.6,0.3-1.3,0.5-1.9,0.8c-0.8,0.3-1.6,0-0.8-0.8
	c1.4-1.7,6.2-4.7,8.1-6.4c0.7-0.6,0.9-1.3,0.2-1.9c-1.3-1.2-4.1,1.3-5.9,2.5c-1.6,1-3.3,2.4-5.1,3.5c-1,0.6-2,1.2-2.9,1.6
	c-0.6,0.3-1.4,0.7-2,0.6c-0.9-0.2-0.8-1.1-0.7-1.6c1-3.9,2.9-5.4,2.7-7.4c-0.2-1.9-1.1-2.7-2.5-0.7c-2.5,3.6-3.7,7.3-6.4,10.8
	c-0.4,0.5-0.7,1.1-1,1.7l-1.6,0.5C67.3,38.2,67.3,16.3,67.2,16.3z"/>
<rect x="103.8" y="20.9" class="st5" width="1.7" height="43"/>
<polygon class="st5" points="67.2,23.7 67.2,56.8 97.9,53.2 100.6,33.5 95.7,24.2 77.8,20.5 "/>
<path class="st5" d="M126.8,59.4c3,0.3,9.2,0.2,12.2,0.1c3.1,0,3.1,0,3.1-2.9c0-2.9,0-8.6-0.5-14c-0.4-5.5-1.3-10.7-3.7-14
	s-6.3-4.5-11.3-4.7c-5.1-0.2-11.3,0.7-14.8,3.2c-3.5,2.5-4.2,6.6-4.8,9.4c-0.6,2.8-1,4.3-0.9,6.8c0.1,2.5,0.8,5.8,2.7,8.3
	c1.9,2.5,5,4.1,7.1,4.9s3.2,1,4.4,1.1c1.2,0.1,2.4,0.2,3,0.5C123.9,58.5,123.8,59.2,126.8,59.4"/>
<path class="st0" d="M19.3,94.9h170.8c4.9,0,9,4.1,9,9v2.9c0,4.9-4.1,9-9,9H19.3c-4.9,0-9-4.1-9-9v-2.9
	C10.3,98.9,14.4,94.9,19.3,94.9"/>
<path class="st4" d="M95.9,108.4c0,0.6-0.5,1.1-1.1,1.1s-1.1-0.5-1.1-1.1v-4.8c0-0.6,0-0.9-0.1-0.9c-0.1,0-0.3,0.2-0.6,0.6l-4.9,5.5
	c-0.4,0.4-1,0.7-1.6,0.7s-1.2-0.2-1.6-0.7l-4.9-5.5c-0.3-0.4-0.5-0.6-0.6-0.6c-0.1,0-0.1,0.3-0.1,0.9v4.8c0,0.6-0.5,1.1-1.1,1.1
	s-1.1-0.5-1.1-1.1V102c0-1.2,0.7-2.1,1.9-2.1c0.7,0,1.3,0.4,1.7,0.9l5.1,5.8c0.1,0.2,0.4,0.3,0.6,0.3s0.5-0.2,0.6-0.3l5.1-5.8h0
	c0.4-0.6,1-0.9,1.7-0.9c1.2,0,1.9,0.9,1.9,2.1C95.9,102,95.9,108.4,95.9,108.4z"/>
<path class="st4" d="M113.2,104.7L113.2,104.7c0-1.1-0.4-2.7-2.5-2.7h-8.9c-2,0-2.5,1.6-2.5,2.7c0,1.1,0.4,2.7,2.5,2.7h8.9
	C112.7,107.4,113.2,105.8,113.2,104.7 M111.2,109.5h-10.1c-2.4-0.1-3.8-2.6-3.8-4.8c0-2.2,1.5-4.8,4.1-4.8h10.1
	c2.4,0.1,3.8,2.6,3.8,4.8C115.2,106.9,113.7,109.5,111.2,109.5z"/>
<path class="st4" d="M133.4,100.9c0,0.6-0.5,1.1-1.1,1.1h-6.5v6.4c0,0.6-0.5,1.1-1.1,1.1s-1.1-0.5-1.1-1.1V102H117
	c-0.5,0-1-0.5-1-1.1c0-0.6,0.5-1.1,1.1-1.1h15.2C132.9,99.9,133.4,100.4,133.4,100.9"/>
<path class="st4" d="M150.1,104.7L150.1,104.7c0-1.1-0.4-2.7-2.5-2.7h-8.9c-2,0-2.5,1.6-2.5,2.7c0,1.1,0.4,2.7,2.5,2.7h8.9
	C149.7,107.4,150.1,105.8,150.1,104.7 M148.1,109.5H138c-2.4-0.1-3.8-2.6-3.8-4.8c0-2.2,1.5-4.8,4.1-4.8h10.1
	c2.4,0.1,3.8,2.6,3.8,4.8C152.2,106.9,150.6,109.5,148.1,109.5z"/>
<path class="st4" d="M170.2,107.5c0.3,0.2,0.6,0.6,0.6,0.9c0,0.6-0.5,1.1-1.1,1.1c-0.3,0-0.5-0.1-0.8-0.3c-2.4-1.8-5.1-3.4-8.3-3.4
	h-4.4c-0.4,0.1-0.7,0.4-0.7,0.8v1.9c0,0.6-0.5,1.1-1.1,1.1c-0.6,0-1.1-0.5-1.1-1.1v-2.1c0-1.5,1.2-2.7,2.7-2.7h11.7
	c0.4,0,0.8-0.3,0.8-0.8c0-0.4-0.4-0.8-0.8-0.8h-13.3c-0.6,0-1.1-0.5-1.1-1.1s0.5-1.1,1.1-1.1h13.2c1.6,0,3,1.3,3,2.9
	c0,1.6-1.4,2.9-3,2.9h-0.1C168.5,106.2,169.4,106.8,170.2,107.5"/>
<path class="st4" d="M19.8,100H33c1.6,0,3,1.3,3,2.9c0,1.6-1.3,2.9-3,2.9H21.6c-0.4,0.1-0.7,0.4-0.7,0.8v1.9c0,0.6-0.5,1.1-1.1,1.1
	c-0.6,0-1.1-0.5-1.1-1.1v-2.1c0-1.5,1.1-2.7,2.6-2.7h11.7c0.4,0,0.8-0.3,0.8-0.8c0-0.4-0.4-0.8-0.8-0.8H19.8c-0.6,0-1.1-0.5-1.1-1.1
	C18.8,100.4,19.2,100,19.8,100"/>
<path class="st4" d="M40.1,109.6L40.1,109.6c-1.3,0-2.7-1.2-2.7-2.9v-2c0-0.8,0.4-1,1.4-1h14.8c0.6,0,1.1,0.5,1.1,1.1
	s-0.5,1.1-1.1,1.1H39.5v1.1c0,0.3,0.3,0.6,0.7,0.6h13.9c0.6,0,1.1,0.5,1.1,1.1s-0.5,1.1-1.1,1.1H40.1z M38.5,100h15.7
	c0.6,0,1.1,0.5,1.1,1.1s-0.5,1.1-1.1,1.1H38.5c-0.6,0-1.1-0.5-1.1-1.1C37.4,100.4,37.9,100,38.5,100z"/>
<path class="st4" d="M60.6,100h12.9c0.6,0,1.1,0.5,1.1,1.1s-0.5,1.1-1.1,1.1H61.1c-2,0-2.5,1.6-2.5,2.7c0,1.1,0.4,2.7,2.5,2.7h12.4
	c0.6,0,1.1,0.5,1.1,1.1s-0.5,1.1-1.1,1.1H60.4c-2.4,0-3.8-2.6-3.8-4.8C56.5,102.5,58.1,100,60.6,100"/>
<path class="st5" d="M188.1,106.2c0,0.9-0.7,0.9-1.3,0.9h-12.3c-1.6,0-1.4,2.2,0,2.2h13c0.9,0,1.6-0.4,2.1-0.8
	c1.6-1.3,1.1-4.2-1.1-5c-1-0.3-3.3-0.2-4.6-0.2c-0.6,0-7.9,0.1-8.3,0c-0.7-0.2-0.8-1.3,0.1-1.4c0.7-0.1,11.3,0.1,13.1,0
	c0.7-0.1,1.3-0.3,1.4-1c0.1-0.6-0.4-1.2-1.1-1.2H176c-0.4,0-0.9,0.2-1.2,0.3c-2.8,1.4-2.1,5.6,1.6,5.6h10.7
	C187.5,105.6,188.1,105.6,188.1,106.2"/>
<path class="st5" d="M43,71.6h123.4c4.9,0,9,4.1,9,9v2.9c0,4.9-4.1,9-9,9H43c-5,0-9-4.1-9-9v-2.9C34,75.7,38,71.6,43,71.6"/>
<path class="st6" d="M156.6,86.9L157,85h5.2c0.2,0,0.3,0,0.4-0.1s0.1-0.2,0.2-0.4l0.3-1.4c0,0,0-0.1,0-0.2c0-0.2-0.1-0.3-0.4-0.3
	h-3.9c-0.4,0-0.7-0.1-0.9-0.2c-0.2-0.2-0.3-0.4-0.3-0.7c0-0.1,0-0.3,0-0.4l0.5-2.5c0.1-0.6,0.3-1,0.6-1.3s0.8-0.4,1.4-0.4h6.1
	L166,79h-5.2c-0.1,0-0.3,0-0.3,0.1c-0.1,0.1-0.1,0.2-0.2,0.4l-0.3,1.3c0,0,0,0.1,0,0.1c0,0,0,0.1,0,0.1c0,0.1,0.1,0.2,0.3,0.2h3.9
	c0.4,0,0.7,0.1,0.9,0.3c0.2,0.2,0.3,0.4,0.3,0.7c0,0.1,0,0.3,0,0.4l-0.6,2.7c-0.1,0.6-0.3,1-0.6,1.3s-0.8,0.4-1.4,0.4L156.6,86.9
	L156.6,86.9z M141,79.6c0-0.1,0-0.1,0-0.1s0-0.1,0-0.1c0-0.2-0.2-0.3-0.5-0.3h-2.7c-0.2,0-0.3,0-0.4,0.1s-0.1,0.2-0.2,0.4l-1,4.9
	c0,0.1,0,0.2,0,0.2c0,0.2,0.1,0.3,0.4,0.3h2.7c0.2,0,0.4,0,0.5-0.1c0.1-0.1,0.2-0.2,0.2-0.4L141,79.6z M135.1,86.9
	c-0.5,0-0.9-0.1-1.1-0.3c-0.2-0.2-0.3-0.4-0.3-0.8c0-0.2,0-0.4,0.1-0.7l1.4-6.4c0.1-0.6,0.3-1,0.6-1.3s0.8-0.4,1.4-0.4h4.9
	c0.5,0,0.8,0.1,1.1,0.3c0.2,0.2,0.3,0.4,0.3,0.8c0,0.1,0,0.2,0,0.3c0,0.1,0,0.2-0.1,0.3l-1.4,6.4c-0.1,0.6-0.3,1-0.6,1.3
	s-0.8,0.4-1.4,0.4L135.1,86.9L135.1,86.9z M110.8,86.9l0.4-1.9h5.2c0.2,0,0.3,0,0.4-0.1c0.1-0.1,0.1-0.2,0.2-0.4l0.3-1.4
	c0,0,0-0.1,0-0.2c0-0.2-0.1-0.3-0.4-0.3H113c-0.4,0-0.7-0.1-0.9-0.2s-0.3-0.4-0.3-0.7c0-0.1,0-0.3,0-0.4l0.5-2.5
	c0.1-0.6,0.3-1,0.6-1.3s0.8-0.4,1.4-0.4h6.1l-0.4,1.9H115c-0.2,0-0.3,0-0.3,0.1s-0.1,0.2-0.2,0.4l-0.3,1.3c0,0,0,0.1,0,0.1
	s0,0.1,0,0.1c0,0.1,0.1,0.2,0.3,0.2h3.9c0.4,0,0.7,0.1,0.9,0.3s0.3,0.4,0.3,0.7c0,0.1,0,0.3,0,0.4l-0.6,2.7c-0.1,0.6-0.3,1-0.6,1.3
	s-0.8,0.4-1.4,0.4L110.8,86.9L110.8,86.9z M93.6,86.9l0.7-3.2c0-0.1,0-0.1,0-0.1c0,0,0-0.1,0-0.1c0-0.2-0.1-0.2-0.4-0.2h-3.2
	L90,86.9h-2.2l1.5-7.2h2.2l-0.4,1.9h3c0.2,0,0.3,0,0.4-0.1c0.1-0.1,0.1-0.2,0.2-0.4l0.3-1.6c0-0.1,0-0.1,0-0.1s0-0.1,0-0.1
	c0-0.1,0-0.2-0.1-0.2s-0.2-0.1-0.3-0.1h-5.2l0.4-1.9h6.2c0.5,0,0.9,0.1,1.1,0.3s0.3,0.4,0.3,0.8c0,0.1,0,0.2,0,0.3
	c0,0.1,0,0.2-0.1,0.3L97,80.9c-0.1,0.5-0.3,0.9-0.6,1.1c-0.3,0.2-0.6,0.3-0.9,0.4c0.3,0,0.6,0.1,0.8,0.2s0.3,0.3,0.3,0.6
	c0,0.1,0,0.1,0,0.2s0,0.1,0,0.2l-0.7,3.4H93.6z M66.3,86.9c-0.5,0-0.9-0.1-1.1-0.3c-0.2-0.2-0.3-0.4-0.3-0.8c0-0.1,0-0.2,0-0.3
	c0-0.1,0-0.2,0.1-0.3l1.7-8.1h2.2l-1.6,7.3c0,0.1,0,0.2,0,0.3c0,0.1,0,0.2,0.1,0.2s0.2,0.1,0.3,0.1h2.9c0.2,0,0.3,0,0.4-0.1
	s0.2-0.2,0.2-0.4l1.6-7.3h2.1l-1.7,8.1c-0.1,0.6-0.3,1-0.6,1.3s-0.8,0.4-1.4,0.4L66.3,86.9L66.3,86.9z M44.3,86.9
	c-0.5,0-0.8-0.1-1.1-0.3c-0.2-0.2-0.3-0.4-0.3-0.8c0-0.1,0-0.2,0-0.3c0-0.1,0-0.2,0.1-0.3l1.3-6.4c0.1-0.6,0.3-1,0.6-1.3
	s0.8-0.4,1.4-0.4h5.5l-0.4,1.9h-4.4c-0.2,0-0.4,0-0.5,0.1s-0.2,0.2-0.2,0.4l-1,4.8c0,0.1,0,0.1,0,0.1c0,0,0,0.1,0,0.1
	c0,0.1,0,0.2,0.1,0.2s0.2,0.1,0.4,0.1h4.5l-0.4,2L44.3,86.9L44.3,86.9z"/>
<path class="st7" d="M86.6,33.9l11.8,5l1.2,6.3l-8.9-3.9c0,0-1.4-0.5-2.2-2.6C87.8,36.6,86.6,33.9,86.6,33.9"/>
<path class="st8" d="M90.1,42.5l9.6,4.1l0.9,5.1l-7.2-3.2c0,0-1.1-0.4-1.8-2.1C91.1,44.7,90.1,42.5,90.1,42.5"/>
<path class="st9" d="M93.3,49.4l7.4,3.1l0.7,4L95.9,54c0,0-0.9-0.3-1.3-1.6C94.1,51.1,93.3,49.4,93.3,49.4"/>
<path class="st9" d="M116,49.4l-7.4,3.1l-0.7,4l5.6-2.5c0,0,0.9-0.3,1.3-1.6C115.2,51.1,116,49.4,116,49.4"/>
<path class="st6" d="M124.5,24.6l-19.8,8.6l-19.9-8.6c0,0-2.1-0.4-1.2,2.1c0.9,2.5,2.1,5.8,2.1,5.8l18.9,7.9l18.9-7.9
	c0,0,1.2-3.3,2.1-5.8C126.6,24.2,124.5,24.6,124.5,24.6"/>
<path class="st7" d="M122.8,33.9l-11.8,5l-1.2,6.3l8.9-3.9c0,0,1.4-0.5,2.2-2.6C121.6,36.6,122.8,33.9,122.8,33.9"/>
<path class="st8" d="M119.2,42.5l-9.6,4.1l-0.9,5.1l7.2-3.2c0,0,1.1-0.4,1.8-2.1C118.2,44.7,119.2,42.5,119.2,42.5"/>
</svg>
